<mxfile host="app.diagrams.net" modified="2021-06-04T07:30:23.247Z" agent="5.0 (Windows NT 10.0; Win64; x64) AppleWebKit/537.36 (KHTML, like Gecko) Chrome/90.0.4430.212 Safari/537.36" etag="LoAumQg64_j6mf32l3UX" version="14.7.2" type="github">
  <diagram id="C5RbgW3tW_q4GjxwLOle" name="Page-1">
    <mxGraphModel dx="1289" dy="761" grid="1" gridSize="10" guides="1" tooltips="1" connect="1" arrows="1" fold="1" page="1" pageScale="1" pageWidth="827" pageHeight="1169" math="1" shadow="0">
      <root>
        <mxCell id="0" />
        <mxCell id="1" parent="0" />
        <mxCell id="Qj5d7aouwbNp9yR_IveV-12" style="edgeStyle=orthogonalEdgeStyle;rounded=0;orthogonalLoop=1;jettySize=auto;html=1;exitX=1;exitY=0.5;exitDx=0;exitDy=0;exitPerimeter=0;entryX=0;entryY=0.5;entryDx=0;entryDy=0;fontFamily=Times New Roman;fontSize=15;" edge="1" parent="1" source="Qj5d7aouwbNp9yR_IveV-2" target="Qj5d7aouwbNp9yR_IveV-3">
          <mxGeometry relative="1" as="geometry" />
        </mxCell>
        <mxCell id="Qj5d7aouwbNp9yR_IveV-2" value="Beaver三元组&lt;br style=&quot;font-size: 15px;&quot;&gt;\(([a],[b],[c])\)&amp;nbsp;" style="strokeWidth=2;html=1;shape=mxgraph.flowchart.start_1;whiteSpace=wrap;fontFamily=Times New Roman;fontSize=15;" vertex="1" parent="1">
          <mxGeometry x="-50" y="330" width="120" height="80" as="geometry" />
        </mxCell>
        <mxCell id="Qj5d7aouwbNp9yR_IveV-13" style="edgeStyle=orthogonalEdgeStyle;rounded=0;orthogonalLoop=1;jettySize=auto;html=1;exitX=1;exitY=0.5;exitDx=0;exitDy=0;fontFamily=Times New Roman;fontSize=15;" edge="1" parent="1" source="Qj5d7aouwbNp9yR_IveV-3" target="Qj5d7aouwbNp9yR_IveV-5">
          <mxGeometry relative="1" as="geometry" />
        </mxCell>
        <mxCell id="Qj5d7aouwbNp9yR_IveV-14" style="edgeStyle=orthogonalEdgeStyle;rounded=0;orthogonalLoop=1;jettySize=auto;html=1;exitX=1;exitY=0.5;exitDx=0;exitDy=0;entryX=0;entryY=0.5;entryDx=0;entryDy=0;fontFamily=Times New Roman;fontSize=15;" edge="1" parent="1" source="Qj5d7aouwbNp9yR_IveV-3" target="Qj5d7aouwbNp9yR_IveV-6">
          <mxGeometry relative="1" as="geometry" />
        </mxCell>
        <mxCell id="Qj5d7aouwbNp9yR_IveV-3" value="\([x]\)&lt;br style=&quot;font-size: 15px;&quot;&gt;\([y]\)" style="shape=parallelogram;html=1;strokeWidth=2;perimeter=parallelogramPerimeter;whiteSpace=wrap;rounded=1;arcSize=12;size=0.23;fontFamily=Times New Roman;fontSize=15;" vertex="1" parent="1">
          <mxGeometry x="90" y="340" width="100" height="60" as="geometry" />
        </mxCell>
        <mxCell id="Qj5d7aouwbNp9yR_IveV-15" style="edgeStyle=orthogonalEdgeStyle;rounded=0;orthogonalLoop=1;jettySize=auto;html=1;exitX=1;exitY=0.5;exitDx=0;exitDy=0;entryX=1;entryY=0.5;entryDx=0;entryDy=0;entryPerimeter=0;fontFamily=Times New Roman;fontSize=15;" edge="1" parent="1" source="Qj5d7aouwbNp9yR_IveV-5" target="Qj5d7aouwbNp9yR_IveV-9">
          <mxGeometry relative="1" as="geometry" />
        </mxCell>
        <mxCell id="Qj5d7aouwbNp9yR_IveV-5" value="部分打开\([x-a]\)&amp;nbsp;&lt;br style=&quot;font-size: 15px;&quot;&gt;得到\(\eta\)&amp;nbsp;" style="rounded=0;whiteSpace=wrap;html=1;fontFamily=Times New Roman;fontSize=15;" vertex="1" parent="1">
          <mxGeometry x="230" y="280" width="120" height="60" as="geometry" />
        </mxCell>
        <mxCell id="Qj5d7aouwbNp9yR_IveV-16" style="edgeStyle=orthogonalEdgeStyle;rounded=0;orthogonalLoop=1;jettySize=auto;html=1;exitX=0.5;exitY=1;exitDx=0;exitDy=0;fontFamily=Times New Roman;fontSize=15;" edge="1" parent="1" source="Qj5d7aouwbNp9yR_IveV-6" target="Qj5d7aouwbNp9yR_IveV-9">
          <mxGeometry relative="1" as="geometry" />
        </mxCell>
        <mxCell id="Qj5d7aouwbNp9yR_IveV-6" value="部分打开\([y-b]\)&lt;br style=&quot;font-size: 15px;&quot;&gt;&amp;nbsp;得到\(\rho\)&amp;nbsp;" style="rounded=0;whiteSpace=wrap;html=1;fontFamily=Times New Roman;fontSize=15;" vertex="1" parent="1">
          <mxGeometry x="230.00000000000003" y="410" width="120" height="60" as="geometry" />
        </mxCell>
        <mxCell id="Qj5d7aouwbNp9yR_IveV-9" value="&lt;br style=&quot;font-size: 15px;&quot;&gt;$$[z]=[c]+\eta[b]+\rho[a]+\eta\rho$$" style="strokeWidth=2;html=1;shape=mxgraph.flowchart.terminator;whiteSpace=wrap;fontFamily=Times New Roman;fontSize=15;" vertex="1" parent="1">
          <mxGeometry x="45.27000000000001" y="520" width="189.47" height="90" as="geometry" />
        </mxCell>
      </root>
    </mxGraphModel>
  </diagram>
</mxfile>
